<svg xmlns="http://www.w3.org/2000/svg" version="1.1" xmlns:xlink="http://www.w3.org/1999/xlink" xmlns:svgjs="http://svgjs.dev/svgjs" width="1440" height="560" preserveAspectRatio="none" viewBox="0 0 1440 560"><g mask="url(&quot;#SvgjsMask1252&quot;)" fill="none"><rect width="1440" height="560" x="0" y="0" fill="url(&quot;#SvgjsLinearGradient1253&quot;)"></rect><path d="M1440 0L947.23 0L1440 180.36z" fill="rgba(255, 255, 255, .1)"></path><path d="M947.23 0L1440 180.36L1440 303.11L539.45 0z" fill="rgba(255, 255, 255, .075)"></path><path d="M539.45 0L1440 303.11L1440 340.17L461.49000000000007 0z" fill="rgba(255, 255, 255, .05)"></path><path d="M461.49 0L1440 340.17L1440 359.81L414.44 0z" fill="rgba(255, 255, 255, .025)"></path><path d="M0 560L595.31 560L0 486.71z" fill="rgba(0, 0, 0, .1)"></path><path d="M0 486.71L595.31 560L733.3499999999999 560L0 442.58z" fill="rgba(0, 0, 0, .075)"></path><path d="M0 442.58L733.3499999999999 560L1082.96 560L0 415.46z" fill="rgba(0, 0, 0, .05)"></path><path d="M0 415.46L1082.96 560L1114.3 560L0 182.76z" fill="rgba(0, 0, 0, .025)"></path></g><defs><mask id="SvgjsMask1252"><rect width="1440" height="560" fill="#ffffff"></rect></mask><linearGradient x1="15.28%" y1="-39.29%" x2="84.72%" y2="139.29%" gradientUnits="userSpaceOnUse" id="SvgjsLinearGradient1253"><stop stop-color="#0e2a47" offset="0"></stop><stop stop-color="rgba(38, 133, 255, 1)" offset="1"></stop></linearGradient></defs></svg>